<svg width="119" height="48" viewBox="0 0 119 48" fill="none" xmlns="http://www.w3.org/2000/svg">
<path d="M58.5391 9.125C58.9036 9.125 59.2161 9.2487 59.4766 9.49609C59.737 9.73047 59.8737 10.0299 59.8867 10.3945V15.1016C59.8737 15.6354 59.9062 16.1302 59.9844 16.5859C60.0755 17.0286 60.2839 17.4258 60.6094 17.7773C60.9349 18.1289 61.3451 18.3177 61.8398 18.3438H68.0898C68.4544 18.3568 68.7539 18.4935 68.9883 18.7539C69.2357 19.0143 69.3594 19.3268 69.3594 19.6914C69.3464 20.043 69.2161 20.3424 68.9688 20.5898C68.7344 20.8242 68.4414 20.9479 68.0898 20.9609H61.1758C60.2643 20.9089 59.5091 20.6029 58.9102 20.043C58.3242 19.4701 57.901 18.7734 57.6406 17.9531C57.3932 17.1328 57.263 16.2604 57.25 15.3359V10.3945C57.263 10.043 57.3932 9.75 57.6406 9.51562C57.888 9.26823 58.1875 9.13802 58.5391 9.125ZM75.2578 20.9609C74.112 20.9219 73.2461 20.6549 72.6602 20.1602C72.0742 19.6523 71.651 19.0859 71.3906 18.4609C71.1302 17.8229 71 17.1784 71 16.5273C71 15.8503 71.1237 15.1992 71.3711 14.5742C71.6315 13.9362 72.0547 13.3698 72.6406 12.875C73.2396 12.3672 73.9948 12.1068 74.9062 12.0938H81.2344C82.1458 12.1068 82.8945 12.3672 83.4805 12.875C84.0794 13.3698 84.5026 13.9362 84.75 14.5742C85.0104 15.1992 85.1406 15.8503 85.1406 16.5273C85.1406 17.1784 85.0104 17.8229 84.75 18.4609C84.4896 19.0859 84.0664 19.6523 83.4805 20.1602C82.8945 20.6549 82.0286 20.9219 80.8828 20.9609H75.2578ZM74.8281 14.7109C74.5807 14.7109 74.3659 14.8151 74.1836 15.0234C74.0013 15.2188 73.8646 15.4531 73.7734 15.7266C73.6953 15.987 73.6562 16.2474 73.6562 16.5078C73.6562 16.7812 73.6953 17.0547 73.7734 17.3281C73.8646 17.5885 74.0013 17.8229 74.1836 18.0312C74.3659 18.2266 74.5807 18.3307 74.8281 18.3438H81.3125C81.5599 18.3307 81.7747 18.2266 81.957 18.0312C82.1393 17.8229 82.2695 17.5885 82.3477 17.3281C82.4388 17.0547 82.4844 16.7812 82.4844 16.5078C82.4844 16.2474 82.4388 15.987 82.3477 15.7266C82.2695 15.4531 82.1393 15.2188 81.957 15.0234C81.7747 14.8151 81.5599 14.7109 81.3125 14.7109H74.8281ZM98.3438 15.2188C98.3438 14.8932 98.1745 14.724 97.8359 14.7109H91C90.7526 14.724 90.5378 14.8346 90.3555 15.043C90.1732 15.2383 90.0365 15.4727 89.9453 15.7461C89.8672 16.0065 89.8281 16.2734 89.8281 16.5469C89.8281 16.8073 89.8672 17.0742 89.9453 17.3477C90.0365 17.6081 90.1732 17.8424 90.3555 18.0508C90.5378 18.2461 90.7526 18.3438 91 18.3438H96C96.3646 18.3438 96.6706 18.474 96.918 18.7344C97.1784 18.9818 97.3086 19.2878 97.3086 19.6523C97.3086 20.0169 97.1784 20.3229 96.918 20.5703C96.6706 20.8307 96.3646 20.9609 96 20.9609H91.0781C90.1667 20.9479 89.4115 20.694 88.8125 20.1992C88.2266 19.6914 87.8034 19.125 87.543 18.5C87.2956 17.862 87.1719 17.2044 87.1719 16.5273C87.1719 15.8763 87.3021 15.2383 87.5625 14.6133C87.8229 13.9753 88.2461 13.4089 88.832 12.9141C89.418 12.4062 90.2839 12.1328 91.4297 12.0938H99.6328C99.9974 12.0938 100.31 12.2174 100.57 12.4648C100.831 12.6992 100.967 12.9987 100.98 13.3633V19.5352C100.98 20.5768 100.837 21.5599 100.551 22.4844C100.29 23.3047 99.8607 23.9948 99.2617 24.5547C98.6758 25.1276 97.9271 25.4401 97.0156 25.4922H90.2578C89.9062 25.4792 89.6068 25.349 89.3594 25.1016C89.125 24.8672 89.0013 24.5742 88.9883 24.2227C88.9883 23.8581 89.1055 23.5456 89.3398 23.2852C89.5872 23.0247 89.8932 22.888 90.2578 22.875H96.3516C96.8464 22.849 97.2565 22.6602 97.582 22.3086C97.9076 21.957 98.1159 21.5469 98.207 21.0781C98.2982 20.6094 98.3438 20.0039 98.3438 19.2617V15.2188ZM107.66 20.9609C106.514 20.9219 105.648 20.6549 105.062 20.1602C104.477 19.6523 104.053 19.0859 103.793 18.4609C103.533 17.8229 103.402 17.1784 103.402 16.5273C103.402 15.8503 103.526 15.1992 103.773 14.5742C104.034 13.9362 104.457 13.3698 105.043 12.875C105.642 12.3672 106.397 12.1068 107.309 12.0938H113.637C114.548 12.1068 115.297 12.3672 115.883 12.875C116.482 13.3698 116.905 13.9362 117.152 14.5742C117.413 15.1992 117.543 15.8503 117.543 16.5273C117.543 17.1784 117.413 17.8229 117.152 18.4609C116.892 19.0859 116.469 19.6523 115.883 20.1602C115.297 20.6549 114.431 20.9219 113.285 20.9609H107.66ZM107.23 14.7109C106.983 14.7109 106.768 14.8151 106.586 15.0234C106.404 15.2188 106.267 15.4531 106.176 15.7266C106.098 15.987 106.059 16.2474 106.059 16.5078C106.059 16.7812 106.098 17.0547 106.176 17.3281C106.267 17.5885 106.404 17.8229 106.586 18.0312C106.768 18.2266 106.983 18.3307 107.23 18.3438H113.715C113.962 18.3307 114.177 18.2266 114.359 18.0312C114.542 17.8229 114.672 17.5885 114.75 17.3281C114.841 17.0547 114.887 16.7812 114.887 16.5078C114.887 16.2474 114.841 15.987 114.75 15.7266C114.672 15.4531 114.542 15.2188 114.359 15.0234C114.177 14.8151 113.962 14.7109 113.715 14.7109H107.23ZM58.5391 29.125C58.9036 29.125 59.2161 29.2487 59.4766 29.4961C59.737 29.7305 59.8737 30.0299 59.8867 30.3945V35.1016C59.8737 35.6354 59.9062 36.1302 59.9844 36.5859C60.0755 37.0286 60.2839 37.4258 60.6094 37.7773C60.9349 38.1289 61.3451 38.3177 61.8398 38.3438H68.0898C68.4544 38.3568 68.7539 38.4935 68.9883 38.7539C69.2357 39.0143 69.3594 39.3268 69.3594 39.6914C69.3464 40.043 69.2161 40.3424 68.9688 40.5898C68.7344 40.8242 68.4414 40.9479 68.0898 40.9609H61.1758C60.2643 40.9089 59.5091 40.6029 58.9102 40.043C58.3242 39.4701 57.901 38.7734 57.6406 37.9531C57.3932 37.1328 57.263 36.2604 57.25 35.3359V30.3945C57.263 30.043 57.3932 29.75 57.6406 29.5156C57.888 29.2682 58.1875 29.138 58.5391 29.125ZM75.2578 40.9609C74.112 40.9219 73.2461 40.6549 72.6602 40.1602C72.0742 39.6523 71.651 39.0859 71.3906 38.4609C71.1302 37.8229 71 37.1784 71 36.5273C71 35.8503 71.1237 35.1992 71.3711 34.5742C71.6315 33.9362 72.0547 33.3698 72.6406 32.875C73.2396 32.3672 73.9948 32.1068 74.9062 32.0938H81.2344C82.1458 32.1068 82.8945 32.3672 83.4805 32.875C84.0794 33.3698 84.5026 33.9362 84.75 34.5742C85.0104 35.1992 85.1406 35.8503 85.1406 36.5273C85.1406 37.1784 85.0104 37.8229 84.75 38.4609C84.4896 39.0859 84.0664 39.6523 83.4805 40.1602C82.8945 40.6549 82.0286 40.9219 80.8828 40.9609H75.2578ZM74.8281 34.7109C74.5807 34.7109 74.3659 34.8151 74.1836 35.0234C74.0013 35.2188 73.8646 35.4531 73.7734 35.7266C73.6953 35.987 73.6562 36.2474 73.6562 36.5078C73.6562 36.7812 73.6953 37.0547 73.7734 37.3281C73.8646 37.5885 74.0013 37.8229 74.1836 38.0312C74.3659 38.2266 74.5807 38.3307 74.8281 38.3438H81.3125C81.5599 38.3307 81.7747 38.2266 81.957 38.0312C82.1393 37.8229 82.2695 37.5885 82.3477 37.3281C82.4388 37.0547 82.4844 36.7812 82.4844 36.5078C82.4844 36.2474 82.4388 35.987 82.3477 35.7266C82.2695 35.4531 82.1393 35.2188 81.957 35.0234C81.7747 34.8151 81.5599 34.7109 81.3125 34.7109H74.8281ZM98.3438 35.2188C98.3438 34.8932 98.1745 34.724 97.8359 34.7109H91C90.7526 34.724 90.5378 34.8346 90.3555 35.043C90.1732 35.2383 90.0365 35.4727 89.9453 35.7461C89.8672 36.0065 89.8281 36.2734 89.8281 36.5469C89.8281 36.8073 89.8672 37.0742 89.9453 37.3477C90.0365 37.6081 90.1732 37.8424 90.3555 38.0508C90.5378 38.2461 90.7526 38.3438 91 38.3438H96C96.3646 38.3438 96.6706 38.474 96.918 38.7344C97.1784 38.9818 97.3086 39.2878 97.3086 39.6523C97.3086 40.0169 97.1784 40.3229 96.918 40.5703C96.6706 40.8307 96.3646 40.9609 96 40.9609H91.0781C90.1667 40.9479 89.4115 40.694 88.8125 40.1992C88.2266 39.6914 87.8034 39.125 87.543 38.5C87.2956 37.862 87.1719 37.2044 87.1719 36.5273C87.1719 35.8763 87.3021 35.2383 87.5625 34.6133C87.8229 33.9753 88.2461 33.4089 88.832 32.9141C89.418 32.4062 90.2839 32.1328 91.4297 32.0938H99.6328C99.9974 32.0938 100.31 32.2174 100.57 32.4648C100.831 32.6992 100.967 32.9987 100.98 33.3633V39.5352C100.98 40.5768 100.837 41.5599 100.551 42.4844C100.29 43.3047 99.8607 43.9948 99.2617 44.5547C98.6758 45.1276 97.9271 45.4401 97.0156 45.4922H90.2578C89.9062 45.4792 89.6068 45.349 89.3594 45.1016C89.125 44.8672 89.0013 44.5742 88.9883 44.2227C88.9883 43.8581 89.1055 43.5456 89.3398 43.2852C89.5872 43.0247 89.8932 42.888 90.2578 42.875H96.3516C96.8464 42.849 97.2565 42.6602 97.582 42.3086C97.9076 41.957 98.1159 41.5469 98.207 41.0781C98.2982 40.6094 98.3438 40.0039 98.3438 39.2617V35.2188ZM107.66 40.9609C106.514 40.9219 105.648 40.6549 105.062 40.1602C104.477 39.6523 104.053 39.0859 103.793 38.4609C103.533 37.8229 103.402 37.1784 103.402 36.5273C103.402 35.8503 103.526 35.1992 103.773 34.5742C104.034 33.9362 104.457 33.3698 105.043 32.875C105.642 32.3672 106.397 32.1068 107.309 32.0938H113.637C114.548 32.1068 115.297 32.3672 115.883 32.875C116.482 33.3698 116.905 33.9362 117.152 34.5742C117.413 35.1992 117.543 35.8503 117.543 36.5273C117.543 37.1784 117.413 37.8229 117.152 38.4609C116.892 39.0859 116.469 39.6523 115.883 40.1602C115.297 40.6549 114.431 40.9219 113.285 40.9609H107.66ZM107.23 34.7109C106.983 34.7109 106.768 34.8151 106.586 35.0234C106.404 35.2188 106.267 35.4531 106.176 35.7266C106.098 35.987 106.059 36.2474 106.059 36.5078C106.059 36.7812 106.098 37.0547 106.176 37.3281C106.267 37.5885 106.404 37.8229 106.586 38.0312C106.768 38.2266 106.983 38.3307 107.23 38.3438H113.715C113.962 38.3307 114.177 38.2266 114.359 38.0312C114.542 37.8229 114.672 37.5885 114.75 37.3281C114.841 37.0547 114.887 36.7812 114.887 36.5078C114.887 36.2474 114.841 35.987 114.75 35.7266C114.672 35.4531 114.542 35.2188 114.359 35.0234C114.177 34.8151 113.962 34.7109 113.715 34.7109H107.23Z" fill="white"/>
<circle cx="28" cy="24" r="18" stroke="white" stroke-width="4"/>
</svg>
