<svg width="242" height="96" viewBox="0 0 242 96" fill="none" xmlns="http://www.w3.org/2000/svg">
<path d="M0.657532 93.1689V84.3176H2.4531V87.8075H5.91779V84.3176H7.71335V93.1689H5.91779V89.4261H2.4531V93.1689H0.657532ZM7.91706 93.1689L9.97816 84.3176H13.7716L15.8327 93.1689H13.9486L13.5061 91.1458H10.2437L9.80114 93.1689H7.91706ZM10.5092 89.7928H13.2405L12.3554 85.7717H11.3944L10.5092 89.7928ZM15.5709 94.9392V91.601H16.4181L18.1505 84.3176H23.5245V91.601H24.2959V94.9392H22.8038V93.1689H17.063V94.9392H15.5709ZM18.2264 91.7021H21.729V85.7844H19.5161L18.2264 91.7021ZM24.5074 93.1689V84.3176H30.6781V85.8349H26.303V87.9087H30.0458V89.3755H26.303V91.6516H30.8045V93.1689H24.5074ZM37.305 93.1689H35.5094V89.464H34.207L32.639 93.1689H30.6032L32.7022 88.4904L30.7929 84.3176H32.8034L34.3334 87.896H35.5094V84.3176H37.305V87.896H38.4809L39.9983 84.3176H42.0215L40.1121 88.4904L42.2112 93.1689H40.1627L38.5947 89.464H37.305V93.1689ZM42.2719 93.1689V84.3176H44.0675V87.8075H47.5322V84.3176H49.3277V93.1689H47.5322V89.4261H44.0675V93.1689H42.2719ZM49.9866 91.8033V85.6832L51.3523 84.3176H55.955L57.3207 85.6832V91.8033L55.955 93.1689H51.3523L49.9866 91.8033ZM51.8328 85.8855V91.601H55.4745V85.8855H51.8328ZM57.9489 91.8033V85.6832L59.3146 84.3176H63.8414V85.9487H59.7951V91.5378H63.9679V93.1689H59.3146L57.9489 91.8033ZM66.3794 93.1689V85.8855H63.9389V84.3176H70.6154V85.8855H68.175V93.1689H66.3794ZM76.1331 87.6811H72.6937V91.7021H76.1331V87.6811ZM77.9287 87.5799V91.8033L76.563 93.1689H70.8982V84.3176H72.6937V86.2143H76.563L77.9287 87.5799ZM82.8022 87.9466H86.0646V85.7844H82.8022V87.9466ZM82.8022 91.7021H86.2922V89.2617H82.8022V91.7021ZM87.8854 85.6326V87.8708L87.19 88.4651L88.1383 89.2743V91.8539L86.8233 93.1689H81.0066V84.3176H86.5704L87.8854 85.6326ZM91.2262 93.1689V84.3176H93.0218V87.896H94.5518L96.4865 84.3176H98.497L96.1451 88.4904L98.6867 93.1689H96.6761L94.6909 89.464H93.0218V93.1689H91.2262ZM98.2882 93.1689L100.349 84.3176H104.143L106.204 93.1689H104.32L103.877 91.1458H100.615L100.172 93.1689H98.2882ZM100.88 89.7928H103.612L102.727 85.7717H101.765L100.88 89.7928ZM112.505 93.1689H110.709V89.464H109.407L107.839 93.1689H105.803L107.902 88.4904L105.993 84.3176H108.003L109.533 87.896H110.709V84.3176H112.505V87.896H113.681L115.198 84.3176H117.221L115.312 88.4904L117.411 93.1689H115.362L113.795 89.464H112.505V93.1689ZM117.004 94.9392V91.601H117.851L119.583 84.3176H124.957V91.601H125.729V94.9392H124.237V93.1689H118.496V94.9392H117.004ZM119.659 91.7021H123.162V85.7844H120.949L119.659 91.7021ZM125.915 91.8033V85.6832L127.281 84.3176H131.883L133.249 85.6832V91.8033L131.883 93.1689H127.281L125.915 91.8033ZM127.761 85.8855V91.601H131.403V85.8855H127.761ZM133.903 93.1689V84.3176H136.077L138.177 88.4145L140.276 84.3176H142.45V93.1689H140.693V86.581L138.606 90.5894H137.747L135.66 86.581V93.1689H133.903ZM145.789 93.1689V84.3176H152.693V93.1689H150.898V85.8855H147.585V93.1689H145.789ZM153.381 93.1689V84.3176H159.552V85.8349H155.177V87.9087H158.919V89.3755H155.177V91.6516H159.678V93.1689H153.381ZM161.879 89.8054H165.116V85.7844H161.879V89.8054ZM166.912 85.6832V89.9066L165.546 91.2722H161.879V93.1689H160.084V84.3176H165.546L166.912 85.6832ZM167.342 93.1689V84.3176H173.513V85.8349H169.138V87.9087H172.881V89.3755H169.138V91.6516H173.639V93.1689H167.342ZM174.045 93.1689V84.3176H175.841V87.896H177.371L179.305 84.3176H181.316L178.964 88.4904L181.505 93.1689H179.495L177.51 89.464H175.841V93.1689H174.045ZM188.77 84.3176V93.1689H186.974V85.9108H184.572L182.991 93.1689H181.107L183.117 84.3176H188.77ZM189.451 93.1689V84.3176H191.247V87.9593H193.346V85.6832L194.711 84.3176H198.909L200.275 85.6832V91.8033L198.909 93.1689H194.711L193.346 91.8033V89.5272H191.247V93.1689H189.451ZM195.116 85.9361V91.5504H198.479V85.9361H195.116ZM207.71 84.3176V93.1689H205.915V91.3987H202.324L200.933 90.0077V84.3176H202.728V89.8813H205.915V84.3176H207.71ZM208.389 93.1689V84.3176H214.559V85.8349H210.184V87.9087H213.927V89.3755H210.184V91.6516H214.686V93.1689H208.389ZM215.091 93.1689V84.3176H216.887V87.8075H220.352V84.3176H222.147V93.1689H220.352V89.4261H216.887V93.1689H215.091ZM230.115 93.1689H228.345V86.7201L224.715 93.1689H222.831V84.3176H224.602V90.7664L228.231 84.3176H230.115V93.1689ZM238.077 93.1689H236.307V86.7201L232.678 93.1689H230.794V84.3176H232.564V90.7664L236.193 84.3176H238.077V93.1689Z" fill="white"/>
<line x1="9.34424" y1="73.2802" x2="231.906" y2="73.2802" stroke="url(#paint0_linear_145_313)" stroke-width="0.911238"/>
<path d="M74.3287 66.8353L77.3019 62.9037H82.4157L79.0647 55.6367L76.2809 54.9897L73.6001 53.9944L70.9193 52.474L68.9088 50.8092L67.156 48.7063L65.7125 46.6784L64.7845 44.7871L64.1659 42.7466L63.6503 40.4608V38.2674V36.5753L64.1659 33.9873L64.7845 32.3449L65.7125 30.404L66.5373 29.0602L67.6199 27.6667L68.9088 26.1736L70.081 25.1782L70.6855 24.715L70.4485 24.3521L66.1227 18.3455L61.288 16.0793L57.669 19.5468L59.8743 24.3521L57.669 28.1199L52.3537 28.6114L50.9683 33.1163L55.3789 35.9285V40.4608L50.9683 43.546L52.3537 48.2421L57.669 48.7063L59.8743 52.474L57.669 57.1428L61.3446 60.5557L66.1227 58.3988L70.081 60.5557V65.5611L74.3287 66.8353Z" stroke="#7BD41C" stroke-opacity="0.92" stroke-width="0.911238"/>
<path d="M74.0891 22.279C85.4392 16.6038 98.7539 23.3704 100.427 35.7391M69.8691 16.0218L71.2515 15.2215L71.6881 10.3467L76.6356 8.96436L79.7642 12.966H84.1296L87.2582 8.96436L92.2057 10.3467L92.7877 15.2215L96.7167 17.477L101.446 15.2215L105.011 18.6411L102.61 23.5158L105.011 26.4847" stroke="white" stroke-width="0.955656"/>
<path d="M111.105 1.37937L111.001 2.74512L109.965 3.37489L108.691 2.74512L107.737 3.70874L108.319 5.04414L107.737 6.09121L106.337 6.22778L105.971 7.47972L107.134 8.26123V9.52076L105.971 10.3781L106.337 11.6832L107.737 11.8122L108.319 12.8593L107.737 14.1567L108.706 15.1052L109.965 14.5057L111.008 15.1052L111.113 16.5468L112.402 16.9262L113.251 15.7577H114.443L115.248 16.9262L116.552 16.5468L116.641 15.1052L117.7 14.5057L118.974 15.1052L119.898 14.1567L119.302 12.8593L119.898 11.8122L121.313 11.6832L121.656 10.3781L120.531 9.52076V8.26123L121.656 7.47972L121.313 6.22778L119.898 6.09121L119.279 5.04414L119.898 3.70874L118.966 2.74512L117.722 3.37489L116.671 2.74512L116.537 1.37937L115.233 1L114.414 2.13812H113.236L112.432 1L111.105 1.37937Z" stroke="#7BD41C" stroke-opacity="0.92" stroke-width="0.53092"/>
<path d="M113.994 4.32056C116.505 4.32056 118.549 6.39454 118.549 8.96313C118.549 11.5317 116.505 13.6057 113.994 13.6057C111.482 13.6056 109.438 11.5317 109.438 8.96313C109.438 6.39459 111.482 4.32063 113.994 4.32056Z" stroke="#7BD41C" stroke-opacity="0.92" stroke-width="0.53092"/>
<path d="M104.379 63.33H96.9794L90.667 52.0149C90.2014 51.0836 89.684 50.2759 89.684 49.3771V48.7553C89.684 47.9421 90.025 47.06 90.667 46.3752L99.9803 35.5098H110.538L96.9794 48.7553L104.379 63.33ZM82.9309 63.33H75.2844L82.9309 35.5098H90.667L82.9309 63.33Z" fill="white"/>
<g clip-path="url(#clip0_145_313)">
<path d="M112.866 61.4589L119.599 37.4619H141.581L134.849 61.4589H130.836L136.811 40.117H122.81L116.835 61.4589H112.866Z" fill="white"/>
<mask id="mask0_145_313" style="mask-type:luminance" maskUnits="userSpaceOnUse" x="109" y="35" width="36" height="29">
<path d="M144.754 35.5098H109.694V63.33H144.754V35.5098Z" fill="white"/>
</mask>
<g mask="url(#mask0_145_313)">
<path d="M112.862 61.4586L110.435 61.0714L109.801 63.3295H112.862V61.4586ZM119.599 37.4359V35.5649H117.588L117.172 37.0488L119.599 37.4359ZM141.597 37.4359L144.024 37.823L144.657 35.5649H141.597V37.4359ZM134.859 61.4586V63.3295H136.87L137.286 61.8457L134.859 61.4586ZM130.843 61.4586L128.416 61.0723L127.784 63.3295H130.843V61.4586ZM136.822 40.0939L139.25 40.4802L139.882 38.2229H136.822V40.0939ZM122.812 40.0939V38.2229H120.8L120.384 39.7076L122.812 40.0939ZM116.833 61.4586V63.3295H118.845L119.261 61.8449L116.833 61.4586ZM112.862 61.4586L115.29 61.8457L122.027 37.823L119.599 37.4359L117.172 37.0488L110.435 61.0714L112.862 61.4586ZM119.599 37.4359V39.3068H141.597V37.4359V35.5649H119.599V37.4359ZM141.597 37.4359L139.169 37.0488L132.432 61.0714L134.859 61.4586L137.286 61.8457L144.024 37.823L141.597 37.4359ZM134.859 61.4586V59.5876H130.843V61.4586V63.3295H134.859V61.4586ZM130.843 61.4586L133.271 61.8449L139.25 40.4802L136.822 40.0939L134.395 39.7076L128.416 61.0723L130.843 61.4586ZM136.822 40.0939V38.2229H122.812V40.0939V41.9648H136.822V40.0939ZM122.812 40.0939L120.384 39.7076L114.405 61.0723L116.833 61.4586L119.261 61.8449L125.24 40.4802L122.812 40.0939ZM116.833 61.4586V59.5876H112.862V61.4586V63.3295H116.833V61.4586Z" fill="white"/>
</g>
</g>
<g clip-path="url(#clip1_145_313)">
<g clip-path="url(#clip2_145_313)">
<mask id="mask1_145_313" style="mask-type:luminance" maskUnits="userSpaceOnUse" x="143" y="35" width="36" height="29">
<path d="M178.645 35.5093H143.585V63.3295H178.645V35.5093Z" fill="white"/>
</mask>
<g mask="url(#mask1_145_313)">
<path d="M146.754 61.4586L144.326 61.0714L143.693 63.3295H146.754V61.4586ZM153.491 37.4359V35.5649H151.48L151.064 37.0488L153.491 37.4359ZM175.488 37.4359L177.916 37.823L178.549 35.5649H175.488V37.4359ZM168.751 61.4586V63.3295H170.762L171.178 61.8457L168.751 61.4586ZM164.735 61.4586L162.307 61.0723L161.676 63.3295H164.735V61.4586ZM170.714 40.0939L173.142 40.4802L173.773 38.2229H170.714V40.0939ZM156.704 40.0939V38.2229H154.691L154.276 39.7076L156.704 40.0939ZM150.725 61.4586V63.3295H152.737L153.152 61.8449L150.725 61.4586ZM146.754 61.4586L149.181 61.8457L155.919 37.823L153.491 37.4359L151.064 37.0488L144.326 61.0714L146.754 61.4586ZM153.491 37.4359V39.3068H175.488V37.4359V35.5649H153.491V37.4359ZM175.488 37.4359L173.061 37.0488L166.323 61.0714L168.751 61.4586L171.178 61.8457L177.916 37.823L175.488 37.4359ZM168.751 61.4586V59.5876H164.735V61.4586V63.3295H168.751V61.4586ZM164.735 61.4586L167.163 61.8449L173.142 40.4802L170.714 40.0939L168.286 39.7076L162.307 61.0723L164.735 61.4586ZM170.714 40.0939V38.2229H156.704V40.0939V41.9648H170.714V40.0939ZM156.704 40.0939L154.276 39.7076L148.297 61.0723L150.725 61.4586L153.152 61.8449L159.131 40.4802L156.704 40.0939ZM150.725 61.4586V59.5876H146.754V61.4586V63.3295H150.725V61.4586Z" fill="white"/>
</g>
</g>
</g>
<path d="M129.413 36.5714L131.668 35.04L130.981 32.5868L128.144 32.3192L126.905 30.2674L128.144 27.6506L126.278 25.7624L123.784 26.9965L121.679 25.7624L121.41 23.0862L118.797 22.3428L117.155 24.573H114.796L113.183 22.3428L110.525 23.0862L110.316 25.7624L108.241 26.9965L105.687 25.7624L103.776 27.6506L104.941 30.2674L103.776 32.3192L100.969 32.5868L100.238 35.04L102.567 36.5714" stroke="white" stroke-width="0.955656"/>
<path d="M107.033 37.4204C107.033 25.7143 125.297 25.3428 125.297 37.4204" stroke="white" stroke-width="0.849472"/>
<defs>
<linearGradient id="paint0_linear_145_313" x1="-3.25129" y1="73.7358" x2="251.105" y2="73.7359" gradientUnits="userSpaceOnUse">
<stop offset="0.1184" stop-color="#7BD41C" stop-opacity="0"/>
<stop offset="0.500549" stop-color="#7BD41C" stop-opacity="0.92"/>
<stop offset="0.869832" stop-color="#7BD41C" stop-opacity="0"/>
</linearGradient>
<clipPath id="clip0_145_313">
<rect width="37.7444" height="27.8202" fill="white" transform="translate(109.775 35.5098)"/>
</clipPath>
<clipPath id="clip1_145_313">
<rect width="37.7444" height="27.8202" fill="white" transform="translate(143.615 35.5098)"/>
</clipPath>
<clipPath id="clip2_145_313">
<rect width="37.7444" height="27.8202" fill="white" transform="translate(143.667 35.5098)"/>
</clipPath>
</defs>
</svg>
