
<svg width="1440" height="124" viewBox="0 0 1440 124" fill="none" xmlns="http://www.w3.org/2000/svg">
<mask id="mask0_54_54" style="mask-type:luminance" maskUnits="userSpaceOnUse" x="0" y="0" width="1440" height="124">
<path d="M1439.7 0H0V124H1439.7V0Z" fill="white"/>
</mask>
<g mask="url(#mask0_54_54)">
<path d="M2822.68 127.768H-1284.31L-1279.56 127.321L-10.5105 5.42822H1548.88L2822.68 127.768ZM-1274.52 127.302H2812.93L1548.73 5.87587H-10.4144L-1274.57 127.321L-1274.52 127.302Z" fill="white" fill-opacity="0.51"/>
<path d="M2553.74 101.953H-1015.42V102.419H2553.74V101.953Z" fill="white" fill-opacity="0.51"/>
<path d="M2350.02 82.3862H-811.656V82.8525H2350.02V82.3862Z" fill="white" fill-opacity="0.51"/>
<path d="M2188.01 66.8125H-649.689V67.2788H2188.01V66.8125Z" fill="white" fill-opacity="0.51"/>
<path d="M2056.13 54.1475H-517.813V54.6138H2056.13V54.1475Z" fill="white" fill-opacity="0.51"/>
<path d="M1946.71 43.646H-408.347V44.1123H1946.71V43.646Z" fill="white" fill-opacity="0.51"/>
<path d="M1854.38 34.7671H-316.063V35.2334H1854.38V34.7671Z" fill="white" fill-opacity="0.51"/>
<path d="M1775.53 27.1948H-237.168V27.6611H1775.53V27.1948Z" fill="white" fill-opacity="0.51"/>
<path d="M1707.34 20.6479H-169.022V21.1143H1707.34V20.6479Z" fill="white" fill-opacity="0.51"/>
<path d="M1647.78 14.9409H-109.465V15.4072H1647.78V14.9409Z" fill="white" fill-opacity="0.51"/>
<path d="M1595.38 9.90381H-57.061V10.3701H1595.38V9.90381Z" fill="white" fill-opacity="0.51"/>
<path d="M2427.38 127.768L1400.16 5.87528L1400.54 5.44629L2427.72 127.32L2427.38 127.768Z" fill="white" fill-opacity="0.51"/>
<path d="M2232.25 127.768L1325.87 5.87528L1326.3 5.44629L2232.64 127.32L2232.25 127.768Z" fill="white" fill-opacity="0.51"/>
<path d="M2037.13 127.749L1251.63 5.87528L1252.06 5.44629L2037.56 127.32L2037.13 127.749Z" fill="white" fill-opacity="0.51"/>
<path d="M1842 127.749L1177.34 5.87528L1177.82 5.44629L1842.53 127.339L1842 127.749Z" fill="white" fill-opacity="0.51"/>
<path d="M1646.82 127.749L1103 5.85704L1103.63 5.46533L1647.45 127.339L1646.82 127.749Z" fill="white" fill-opacity="0.51"/>
<path d="M1451.7 127.731L1028.71 5.83839L1029.43 5.46533L1452.42 127.358L1451.7 127.731Z" fill="white" fill-opacity="0.51"/>
<path d="M1256.47 127.694L954.377 5.82001L955.241 5.50293L1257.39 127.377L1256.47 127.694Z" fill="white" fill-opacity="0.51"/>
<path d="M1061.3 127.656L880.04 5.78253L881.096 5.54004L1062.35 127.432L1061.3 127.656Z" fill="white" fill-opacity="0.51"/>
<path d="M866.123 127.581L805.704 5.70752L806.903 5.61426L867.323 127.507L866.123 127.581Z" fill="white" fill-opacity="0.51"/>
<path d="M672.195 127.581L671.043 127.507L731.463 5.61426L732.615 5.70752L672.195 127.581Z" fill="white" fill-opacity="0.51"/>
<path d="M477.021 127.656L476.013 127.432L657.271 5.54004L658.327 5.78253L477.021 127.656Z" fill="white" fill-opacity="0.51"/>
<path d="M281.844 127.694L280.981 127.377L583.078 5.50293L583.941 5.82001L281.844 127.694Z" fill="white" fill-opacity="0.51"/>
<path d="M86.6695 127.731L85.9497 127.358L508.934 5.46533L509.654 5.83839L86.6695 127.731Z" fill="white" fill-opacity="0.51"/>
<path d="M-108.507 127.749L-109.083 127.339L434.74 5.46533L435.316 5.85704L-108.507 127.749Z" fill="white" fill-opacity="0.51"/>
<path d="M-303.633 127.749L-304.161 127.339L360.501 5.44629L361.029 5.87528L-303.633 127.749Z" fill="white" fill-opacity="0.51"/>
<path d="M-498.808 127.749L-499.24 127.32L286.26 5.44629L286.74 5.87528L-498.808 127.749Z" fill="white" fill-opacity="0.51"/>
<path d="M-693.937 127.768L-694.321 127.32L212.067 5.44629L212.451 5.87528L-693.937 127.768Z" fill="white" fill-opacity="0.51"/>
<path d="M-889.064 127.768L-889.4 127.32L137.827 5.44629L138.162 5.87528L-889.064 127.768Z" fill="white" fill-opacity="0.51"/>
<path d="M-1084.19 127.768L-1084.48 127.321L63.5854 5.42822L63.9214 5.87587L-1084.19 127.768Z" fill="white" fill-opacity="0.51"/>
</g>
<rect width="1440" height="123.83" fill="url(#paint0_radial_54_54)"/>
<defs>
<radialGradient id="paint0_radial_54_54" cx="0" cy="0" r="1" gradientUnits="userSpaceOnUse" gradientTransform="translate(720 61.9151) rotate(180) scale(750.557 101.922)">
<stop offset="0.230769" stop-color="#252726" stop-opacity="0"/>
<stop offset="1" stop-color="#252726"/>
</radialGradient>
</defs>
</svg>
