<svg width="1440" height="207" viewBox="0 0 1440 207" fill="none" xmlns="http://www.w3.org/2000/svg">
<mask id="mask0_4_28402" style="mask-type:luminance" maskUnits="userSpaceOnUse" x="0" y="0" width="1440" height="207">
<path d="M1439.7 0H0V207H1439.7V0Z" fill="white"/>
</mask>
<g mask="url(#mask0_4_28402)">
<path d="M2822.68 213.289H-1284.31L-1279.56 212.542L-10.5105 9.06055H1548.88L2822.68 213.289ZM-1274.52 212.511H2812.93L1548.73 9.80783H-10.4144L-1274.57 212.542L-1274.52 212.511Z" fill="white" fill-opacity="0.45"/>
<path d="M2553.74 170.195H-1015.42V170.974H2553.74V170.195Z" fill="white" fill-opacity="0.45"/>
<path d="M2350.02 137.532H-811.656V138.31H2350.02V137.532Z" fill="white" fill-opacity="0.45"/>
<path d="M2188.01 111.534H-649.689V112.312H2188.01V111.534Z" fill="white" fill-opacity="0.45"/>
<path d="M2056.13 90.3916H-517.813V91.17H2056.13V90.3916Z" fill="white" fill-opacity="0.45"/>
<path d="M1946.71 72.8613H-408.347V73.6398H1946.71V72.8613Z" fill="white" fill-opacity="0.45"/>
<path d="M1854.38 58.0391H-316.063V58.8175H1854.38V58.0391Z" fill="white" fill-opacity="0.45"/>
<path d="M1775.53 45.3975H-237.168V46.1759H1775.53V45.3975Z" fill="white" fill-opacity="0.45"/>
<path d="M1707.34 34.4692H-169.022V35.2477H1707.34V34.4692Z" fill="white" fill-opacity="0.45"/>
<path d="M1647.78 24.9414H-109.465V25.7198H1647.78V24.9414Z" fill="white" fill-opacity="0.45"/>
<path d="M1595.38 16.5327H-57.061V17.3111H1595.38V16.5327Z" fill="white" fill-opacity="0.45"/>
<path d="M2427.38 213.289L1400.16 9.80745L1400.54 9.09131L2427.72 212.542L2427.38 213.289Z" fill="white" fill-opacity="0.45"/>
<path d="M2232.25 213.289L1325.87 9.80745L1326.3 9.09131L2232.64 212.542L2232.25 213.289Z" fill="white" fill-opacity="0.45"/>
<path d="M2037.13 213.258L1251.63 9.80745L1252.06 9.09131L2037.56 212.542L2037.13 213.258Z" fill="white" fill-opacity="0.45"/>
<path d="M1842 213.258L1177.34 9.80745L1177.82 9.09131L1842.53 212.573L1842 213.258Z" fill="white" fill-opacity="0.45"/>
<path d="M1646.82 213.258L1103 9.77695L1103.63 9.12305L1647.45 212.573L1646.82 213.258Z" fill="white" fill-opacity="0.45"/>
<path d="M1451.7 213.227L1028.71 9.7458L1029.43 9.12305L1452.42 212.605L1451.7 213.227Z" fill="white" fill-opacity="0.45"/>
<path d="M1256.47 213.165L954.377 9.71487L955.241 9.18555L1257.39 212.636L1256.47 213.165Z" fill="white" fill-opacity="0.45"/>
<path d="M1061.3 213.103L880.04 9.65285L881.096 9.24805L1062.35 212.73L1061.3 213.103Z" fill="white" fill-opacity="0.45"/>
<path d="M866.123 212.978L805.704 9.52777L806.903 9.37207L867.323 212.854L866.123 212.978Z" fill="white" fill-opacity="0.45"/>
<path d="M672.195 212.978L671.043 212.854L731.463 9.37207L732.615 9.52777L672.195 212.978Z" fill="white" fill-opacity="0.45"/>
<path d="M477.021 213.103L476.013 212.73L657.271 9.24805L658.327 9.65285L477.021 213.103Z" fill="white" fill-opacity="0.45"/>
<path d="M281.844 213.165L280.981 212.636L583.078 9.18555L583.941 9.71487L281.844 213.165Z" fill="white" fill-opacity="0.45"/>
<path d="M86.6695 213.227L85.9497 212.605L508.934 9.12305L509.654 9.7458L86.6695 213.227Z" fill="white" fill-opacity="0.45"/>
<path d="M-108.507 213.258L-109.083 212.573L434.74 9.12305L435.316 9.77695L-108.507 213.258Z" fill="white" fill-opacity="0.45"/>
<path d="M-303.633 213.258L-304.161 212.573L360.501 9.09131L361.029 9.80745L-303.633 213.258Z" fill="white" fill-opacity="0.45"/>
<path d="M-498.808 213.258L-499.24 212.542L286.26 9.09131L286.74 9.80745L-498.808 213.258Z" fill="white" fill-opacity="0.45"/>
<path d="M-693.937 213.289L-694.321 212.542L212.067 9.09131L212.451 9.80745L-693.937 213.289Z" fill="white" fill-opacity="0.45"/>
<path d="M-889.064 213.289L-889.4 212.542L137.827 9.09131L138.162 9.80745L-889.064 213.289Z" fill="white" fill-opacity="0.45"/>
<path d="M-1084.19 213.289L-1084.48 212.542L63.5854 9.06055L63.9214 9.80783L-1084.19 213.289Z" fill="white" fill-opacity="0.45"/>
</g>
<rect width="1440" height="206.716" fill="url(#paint0_radial_4_28402)"/>
<defs>
<radialGradient id="paint0_radial_4_28402" cx="0" cy="0" r="1" gradientUnits="userSpaceOnUse" gradientTransform="translate(720 103.358) rotate(180) scale(750.557 170.144)">
<stop offset="0.230769" stop-color="#252726" stop-opacity="0"/>
<stop offset="1" stop-color="#252726"/>
</radialGradient>
</defs>
</svg>
