<svg width="74" height="73" viewBox="0 0 74 73" fill="none" xmlns="http://www.w3.org/2000/svg">
<path d="M53.3355 19.3911L57.6645 23.7787L36.7225 44.4586C35.5292 45.6518 33.9567 46.25 32.3812 46.25C30.8056 46.25 29.2208 45.6488 28.0152 44.4462L16.3447 33.041L20.6522 28.6287L32.3472 40.0587L53.3355 19.3911ZM74 9.25V61.6667H52.873L41.0114 71.4717C39.8952 72.4645 38.4677 72.964 37.0247 72.964C35.557 72.964 34.0801 72.446 32.9022 71.4007L21.3459 61.6667H0V9.25C0 4.15017 4.15017 0 9.25 0H64.75C69.8498 0 74 4.15017 74 9.25ZM67.8333 9.25C67.8333 7.55108 66.452 6.16667 64.75 6.16667H9.25C7.55108 6.16667 6.16667 7.55108 6.16667 9.25V55.5H23.5998L36.9383 66.7387L50.653 55.5H67.8333V9.25Z" fill="#7BD41C" fill-opacity="0.92"/>
</svg>
