<svg width="74" height="74" viewBox="0 0 74 74" fill="none" xmlns="http://www.w3.org/2000/svg">
<path d="M15.4167 67.8333H43.1667V58.5833H56.2616C57.8032 58.5833 59.1168 57.4333 59.3172 55.9039L61.4138 40.0833H67.5497L66.1159 36.815C62.8013 29.2146 59.3017 21.2657 56.1136 17.3222C50.135 9.33325 40.7308 5.31567 30.8333 6.37942V0.206583C42.6209 -0.844833 53.798 4.0145 60.976 13.5358C64.6606 18.1423 68.1571 26.0696 71.7677 34.3514L74 39.4297V46.25H66.8158L65.4314 56.7117C64.8302 61.2936 60.8866 64.75 56.2616 64.75H49.3333V74H9.25V61.6667H15.4167V67.8333ZM24.6667 0V24.6667H0V0H24.6667ZM22.5823 7.4925L18.2718 3.08333L10.4309 11.1956L5.81825 6.32083L1.54167 10.7639L7.82242 17.3993C9.22533 18.8731 11.5717 18.8823 12.987 17.4208L22.5854 7.48942L22.5823 7.4925ZM24.6667 55.5H0V30.8333H24.6667V55.5ZM18.5 37H6.16667V49.3333H18.5V37Z" fill="#7BD41C" fill-opacity="0.92"/>
</svg>
