<svg width="92" height="92" viewBox="0 0 92 92" fill="none" xmlns="http://www.w3.org/2000/svg">
<g filter="url(#filter0_d_46_249)">
<path d="M40.3991 33.1949L33.5985 29.3993V27.5031H42.5112L44.9215 18.2531H46.9138L49.3241 27.5031H58.1877V29.387L51.4332 33.3121L54.151 41.5939L52.6015 42.67L45.9207 37.49L39.2093 42.6916L37.7335 41.5754L40.4052 33.198L40.3991 33.1949ZM62.3197 32.3223L63.7954 33.4385L70.5069 28.2369L77.1876 33.4169L78.7402 32.3408L76.0224 24.059L82.7769 20.1339V18.25H73.9133L71.503 9H69.5108L67.1004 18.25H58.1877V20.1462L64.9883 23.9418L62.3166 32.3193L62.3197 32.3223ZM13.1289 50.8223L14.6047 51.9385L21.3161 46.7369L27.9969 51.9169L29.5494 50.8408L26.8316 42.559L33.5862 38.6339V36.75H24.7226L22.3122 27.5H20.32L17.9097 36.75H9V38.6462L15.8006 42.4418L13.1289 50.8192V50.8223ZM82.7861 50.625V83H9V69.125C9 64.8762 12.4464 61.4167 16.6861 61.4167H28.9837C29.5095 61.4167 30.0229 61.4691 30.521 61.5708V59.875C30.521 55.6262 33.9674 52.1667 38.207 52.1667H50.5047C51.0304 52.1667 51.5438 52.2191 52.0419 52.3208V50.625C52.0419 46.3762 55.4883 42.9167 59.728 42.9167H75.1001C79.3397 42.9167 82.7861 46.3762 82.7861 50.625ZM36.6698 76.8333H52.0419V59.875C52.0419 59.024 51.3502 58.3333 50.5047 58.3333H38.207C37.3615 58.3333 36.6698 59.024 36.6698 59.875V76.8333ZM15.1488 76.8333H30.521V69.125C30.521 68.274 29.8292 67.5833 28.9837 67.5833H16.6861C15.8406 67.5833 15.1488 68.274 15.1488 69.125V76.8333ZM76.6373 50.625C76.6373 49.774 75.9455 49.0833 75.1001 49.0833H59.728C58.8825 49.0833 58.1908 49.774 58.1908 50.625V76.8333H76.6373V50.625Z" fill="#7BD41C" fill-opacity="0.92" shape-rendering="crispEdges"/>
</g>
<defs>
<filter id="filter0_d_46_249" x="0.4" y="0.4" width="90.9861" height="91.2" filterUnits="userSpaceOnUse" color-interpolation-filters="sRGB">
<feFlood flood-opacity="0" result="BackgroundImageFix"/>
<feColorMatrix in="SourceAlpha" type="matrix" values="0 0 0 0 0 0 0 0 0 0 0 0 0 0 0 0 0 0 127 0" result="hardAlpha"/>
<feOffset/>
<feGaussianBlur stdDeviation="4.3"/>
<feComposite in2="hardAlpha" operator="out"/>
<feColorMatrix type="matrix" values="0 0 0 0 0.516304 0 0 0 0 1 0 0 0 0 0 0 0 0 0.64 0"/>
<feBlend mode="normal" in2="BackgroundImageFix" result="effect1_dropShadow_46_249"/>
<feBlend mode="normal" in="SourceGraphic" in2="effect1_dropShadow_46_249" result="shape"/>
</filter>
</defs>
</svg>
