<svg width="461" height="183" viewBox="0 0 461 183" fill="none" xmlns="http://www.w3.org/2000/svg">
<path d="M1.2543 176.621V159.736H4.67949V166.394H11.2887V159.736H14.7139V176.621H11.2887V169.481H4.67949V176.621H1.2543ZM15.1024 176.621L19.0342 159.736H26.2705L30.2023 176.621H26.6082L25.764 172.762H19.5407L18.6965 176.621H15.1024ZM20.0473 170.181H25.2574L23.569 162.51H21.7357L20.0473 170.181ZM29.7029 179.998V173.63H31.319L34.6236 159.736H44.875V173.63H46.3464V179.998H43.5001V176.621H32.5492V179.998H29.7029ZM34.7683 173.823H41.4498V162.534H37.2287L34.7683 173.823ZM46.7499 176.621V159.736H58.521V162.631H50.1751V166.587H57.3149V169.385H50.1751V173.727H58.7622V176.621H46.7499ZM71.1623 176.621H67.7371V169.554H65.2527L62.2616 176.621H58.3781L62.3822 167.696L58.74 159.736H62.5752L65.4939 166.563H67.7371V159.736H71.1623V166.563H73.4056L76.3001 159.736H80.1595L76.5172 167.696L80.5213 176.621H76.6137L73.6227 169.554H71.1623V176.621ZM80.6372 176.621V159.736H84.0624V166.394H90.6716V159.736H94.0968V176.621H90.6716V169.481H84.0624V176.621H80.6372ZM95.3537 174.016V162.341L97.9588 159.736H106.739L109.344 162.341V174.016L106.739 176.621H97.9588L95.3537 174.016ZM98.8754 162.727V173.63H105.822V162.727H98.8754ZM110.542 174.016V162.341L113.148 159.736H121.783V162.848H114.064V173.509H122.024V176.621H113.148L110.542 174.016ZM126.624 176.621V162.727H121.969V159.736H134.705V162.727H130.049V176.621H126.624ZM145.23 166.153H138.669V173.823H145.23V166.153ZM148.655 165.96V174.016L146.05 176.621H135.244V159.736H138.669V163.354H146.05L148.655 165.96ZM157.952 166.659H164.175V162.534H157.952V166.659ZM157.952 173.823H164.61V169.168H157.952V173.823ZM167.649 162.245V166.514L166.322 167.648L168.131 169.192V174.112L165.623 176.621H154.527V159.736H165.14L167.649 162.245ZM174.022 176.621V159.736H177.447V166.563H180.366L184.056 159.736H187.891L183.405 167.696L188.253 176.621H184.418L180.631 169.554H177.447V176.621H174.022ZM187.493 176.621L191.425 159.736H198.661L202.593 176.621H198.999L198.154 172.762H191.931L191.087 176.621H187.493ZM192.438 170.181H197.648L195.959 162.51H194.126L192.438 170.181ZM214.612 176.621H211.187V169.554H208.703L205.712 176.621H201.828L205.832 167.696L202.19 159.736H206.025L208.944 166.563H211.187V159.736H214.612V166.563H216.855L219.75 159.736H223.609L219.967 167.696L223.971 176.621H220.064L217.073 169.554H214.612V176.621ZM223.195 179.998V173.63H224.811L228.115 159.736H238.367V173.63H239.838V179.998H236.992V176.621H226.041V179.998H223.195ZM228.26 173.823H234.942V162.534H230.72L228.26 173.823ZM240.193 174.016V162.341L242.798 159.736H251.579L254.184 162.341V174.016L251.579 176.621H242.798L240.193 174.016ZM243.715 162.727V173.63H250.662V162.727H243.715ZM255.43 176.621V159.736H259.579L263.583 167.552L267.587 159.736H271.736V176.621H268.383V164.054L264.403 171.7H262.763L258.783 164.054V176.621H255.43ZM278.105 176.621V159.736H291.275V176.621H287.85V162.727H281.53V176.621H278.105ZM292.587 176.621V159.736H304.358V162.631H296.012V166.587H303.152V169.385H296.012V173.727H304.6V176.621H292.587ZM308.798 170.205H314.973V162.534H308.798V170.205ZM318.399 162.341V170.398L315.794 173.003H308.798V176.621H305.373V159.736H315.794L318.399 162.341ZM319.219 176.621V159.736H330.99V162.631H322.645V166.587H329.784V169.385H322.645V173.727H331.232V176.621H319.219ZM332.005 176.621V159.736H335.431V166.563H338.349L342.04 159.736H345.875L341.389 167.696L346.237 176.621H342.402L338.615 169.554H335.431V176.621H332.005ZM360.094 159.736V176.621H356.669V162.776H352.086L349.071 176.621H345.477L349.312 159.736H360.094ZM361.394 176.621V159.736H364.819V166.683H368.823V162.341L371.428 159.736H379.436L382.041 162.341V174.016L379.436 176.621H371.428L368.823 174.016V169.674H364.819V176.621H361.394ZM372.2 162.824V173.534H378.616V162.824H372.2ZM396.225 159.736V176.621H392.799V173.244H385.949L383.296 170.591V159.736H386.721V170.35H392.799V159.736H396.225ZM397.519 176.621V159.736H409.29V162.631H400.944V166.587H408.084V169.385H400.944V173.727H409.531V176.621H397.519ZM410.305 176.621V159.736H413.73V166.394H420.339V159.736H423.764V176.621H420.339V169.481H413.73V176.621H410.305ZM438.963 176.621H435.586V164.319L428.664 176.621H425.07V159.736H428.446V172.038L435.369 159.736H438.963V176.621ZM454.152 176.621H450.775V164.319L443.852 176.621H440.258V159.736H443.635V172.038L450.558 159.736H454.152V176.621Z" fill="white"/>
<line x1="17.8247" y1="138.941" x2="442.38" y2="138.941" stroke="url(#paint0_linear_145_348)"/>
<path d="M141.788 126.277L147.46 118.777H157.215L150.823 104.915L145.512 103.68L140.398 101.782L135.285 98.8815L131.449 95.7056L128.106 91.6941L125.352 87.8257L123.582 84.2181L122.402 80.3256L121.418 75.9652V71.7812V68.5533L122.402 63.6165L123.582 60.4836L125.352 56.781L126.926 54.2176L128.991 51.5594L131.449 48.7112L133.685 46.8125L134.839 45.9289L134.387 45.2366L126.135 33.7784L116.912 29.4556L110.009 36.07L114.215 45.2366L110.009 52.4239L99.8691 53.3614L97.2263 61.955L105.64 67.3195V75.9652L97.2263 81.8505L99.8691 90.8087L110.009 91.6941L114.215 98.8815L110.009 107.788L117.02 114.298L126.135 110.183L133.685 114.298V123.846L141.788 126.277Z" stroke="#7BD41C" stroke-opacity="0.92" stroke-width="1.5"/>
<path d="M141.331 41.2825C162.983 30.4567 188.381 43.3646 191.573 66.9589M133.281 29.3465L135.918 27.8198L136.751 18.5208L146.189 15.8838L152.157 23.5173H160.484L166.452 15.8838L175.89 18.5208L177 27.8198L184.495 32.1223L193.517 27.8198L200.317 34.343L195.737 43.642L200.317 49.3053" stroke="white" stroke-width="1.82299"/>
<path d="M211.943 1.41558L211.744 4.02086L209.768 5.22219L207.338 4.02086L205.518 5.85904L206.627 8.40642L205.518 10.4038L202.846 10.6643L202.15 13.0525L204.367 14.5433V16.946L202.15 18.5815L202.846 21.071L205.518 21.317L206.627 23.3144L205.518 25.7894L207.366 27.5987L209.768 26.4552L211.758 27.5987L211.957 30.3487L214.416 31.0724L216.036 28.8434H218.31L219.846 31.0724L222.333 30.3487L222.503 27.5987L224.522 26.4552L226.952 27.5987L228.715 25.7894L227.578 23.3144L228.715 21.317L231.415 21.071L232.069 18.5815L229.923 16.946V14.5433L232.069 13.0525L231.415 10.6643L228.715 10.4038L227.535 8.40642L228.715 5.85904L226.938 4.02086L224.564 5.22219L222.56 4.02086L222.304 1.41558L219.817 0.691895L218.254 2.86296H216.008L214.473 0.691895L211.943 1.41558Z" stroke="#7BD41C" stroke-opacity="0.92" stroke-width="1.01277"/>
<path d="M217.453 7.02588C222.244 7.02588 226.143 10.9818 226.143 15.8813C226.143 20.7812 222.244 24.7378 217.453 24.7378C212.662 24.7378 208.762 20.7812 208.762 15.8813C208.763 10.9818 212.662 7.02588 217.453 7.02588Z" stroke="#7BD41C" stroke-opacity="0.92" stroke-width="1.01277"/>
<path d="M199.111 119.592H184.996L172.955 98.0074C172.066 96.2308 171.079 94.6901 171.079 92.9755V91.7894C171.079 90.2382 171.73 88.5556 172.955 87.2492L190.721 66.5225H210.859L184.996 91.7894L199.111 119.592ZM158.197 119.592H143.611L158.197 66.5225H172.955L158.197 119.592Z" fill="white"/>
<g clip-path="url(#clip0_145_348)">
<path d="M215.302 116.021L228.145 70.2451H270.078L257.235 116.021H249.579L260.977 75.31H234.269L222.872 116.021H215.302Z" fill="white"/>
<mask id="mask0_145_348" style="mask-type:luminance" maskUnits="userSpaceOnUse" x="209" y="66" width="68" height="54">
<path d="M276.13 66.5215H209.25V119.591H276.13V66.5215Z" fill="white"/>
</mask>
<g mask="url(#mask0_145_348)">
<path d="M215.294 116.021L210.664 115.283L209.455 119.59H215.294V116.021ZM228.146 70.1959V66.627H224.31L223.516 69.4575L228.146 70.1959ZM270.108 70.1959L274.738 70.9344L275.946 66.627H270.108V70.1959ZM257.255 116.021V119.59H261.092L261.886 116.76L257.255 116.021ZM249.595 116.021L244.964 115.284L243.759 119.59H249.595V116.021ZM261 75.2662L265.631 76.0032L266.836 71.6973H261V75.2662ZM234.275 75.2662V71.6973H230.436L229.643 74.5293L234.275 75.2662ZM222.869 116.021V119.59H226.708L227.5 116.758L222.869 116.021ZM215.294 116.021L219.925 116.76L232.777 70.9344L228.146 70.1959L223.516 69.4575L210.664 115.283L215.294 116.021ZM228.146 70.1959V73.7649H270.108V70.1959V66.627H228.146V70.1959ZM270.108 70.1959L265.477 69.4575L252.625 115.283L257.255 116.021L261.886 116.76L274.738 70.9344L270.108 70.1959ZM257.255 116.021V112.452H249.595V116.021V119.59H257.255V116.021ZM249.595 116.021L254.226 116.758L265.631 76.0032L261 75.2662L256.369 74.5293L244.964 115.284L249.595 116.021ZM261 75.2662V71.6973H234.275V75.2662V78.8352H261V75.2662ZM234.275 75.2662L229.643 74.5293L218.238 115.284L222.869 116.021L227.5 116.758L238.905 76.0032L234.275 75.2662ZM222.869 116.021V112.452H215.294V116.021V119.59H222.869V116.021Z" fill="white"/>
</g>
</g>
<g clip-path="url(#clip1_145_348)">
<g clip-path="url(#clip2_145_348)">
<mask id="mask1_145_348" style="mask-type:luminance" maskUnits="userSpaceOnUse" x="273" y="66" width="68" height="54">
<path d="M340.781 66.5215H273.902V119.591H340.781V66.5215Z" fill="white"/>
</mask>
<g mask="url(#mask1_145_348)">
<path d="M279.946 116.021L275.315 115.283L274.107 119.59H279.946V116.021ZM292.798 70.1959V66.627H288.961L288.168 69.4575L292.798 70.1959ZM334.759 70.1959L339.39 70.9344L340.598 66.627H334.759V70.1959ZM321.907 116.021V119.59H325.744L326.538 116.76L321.907 116.021ZM314.247 116.021L309.616 115.284L308.411 119.59H314.247V116.021ZM325.652 75.2662L330.283 76.0032L331.488 71.6973H325.652V75.2662ZM298.926 75.2662V71.6973H295.088L294.295 74.5293L298.926 75.2662ZM287.521 116.021V119.59H291.36L292.152 116.758L287.521 116.021ZM279.946 116.021L284.577 116.76L297.429 70.9344L292.798 70.1959L288.168 69.4575L275.315 115.283L279.946 116.021ZM292.798 70.1959V73.7649H334.759V70.1959V66.627H292.798V70.1959ZM334.759 70.1959L330.129 69.4575L317.277 115.283L321.907 116.021L326.538 116.76L339.39 70.9344L334.759 70.1959ZM321.907 116.021V112.452H314.247V116.021V119.59H321.907V116.021ZM314.247 116.021L318.878 116.758L330.283 76.0032L325.652 75.2662L321.021 74.5293L309.616 115.284L314.247 116.021ZM325.652 75.2662V71.6973H298.926V75.2662V78.8352H325.652V75.2662ZM298.926 75.2662L294.295 74.5293L282.89 115.284L287.521 116.021L292.152 116.758L303.557 76.0032L298.926 75.2662ZM287.521 116.021V112.452H279.946V116.021V119.59H287.521V116.021Z" fill="white"/>
</g>
</g>
</g>
<path d="M246.867 68.5476L251.168 65.6264L249.858 60.9466L244.446 60.4361L242.082 56.5222L244.446 51.5305L240.886 47.9285L236.129 50.2826L232.113 47.9285L231.6 42.8234L226.616 41.4053L223.483 45.6596H218.983L215.906 41.4053L210.837 42.8234L210.438 47.9285L206.479 50.2826L201.608 47.9285L197.962 51.5305L200.184 56.5222L197.962 60.4361L192.608 60.9466L191.212 65.6264L195.655 68.5476" stroke="white" stroke-width="1.82299"/>
<path d="M204.175 70.1679C204.175 47.8376 239.015 47.1288 239.015 70.1679" stroke="white" stroke-width="1.62044"/>
<defs>
<linearGradient id="paint0_linear_145_348" x1="-6.20232" y1="139.441" x2="479.004" y2="139.441" gradientUnits="userSpaceOnUse">
<stop offset="0.1184" stop-color="#7BD41C" stop-opacity="0"/>
<stop offset="0.500549" stop-color="#7BD41C" stop-opacity="0.92"/>
<stop offset="0.869832" stop-color="#7BD41C" stop-opacity="0"/>
</linearGradient>
<clipPath id="clip0_145_348">
<rect width="72.0006" height="53.0694" fill="white" transform="translate(209.405 66.5225)"/>
</clipPath>
<clipPath id="clip1_145_348">
<rect width="72.0006" height="53.0694" fill="white" transform="translate(273.957 66.5225)"/>
</clipPath>
<clipPath id="clip2_145_348">
<rect width="72.0006" height="53.0694" fill="white" transform="translate(274.056 66.5225)"/>
</clipPath>
</defs>
</svg>
